<svg width="16" height="6" viewBox="0 0 16 6" fill="none" xmlns="http://www.w3.org/2000/svg">
<path d="M0.5 0.900391C0.632608 0.900391 0.759785 0.95307 0.853553 1.04684C0.947322 1.14061 1 1.26778 1 1.40039V3.90039C1 4.16561 1.10536 4.41996 1.29289 4.6075C1.48043 4.79503 1.73478 4.90039 2 4.90039H14C14.2652 4.90039 14.5196 4.79503 14.7071 4.6075C14.8946 4.41996 15 4.16561 15 3.90039V1.40039C15 1.26778 15.0527 1.14061 15.1464 1.04684C15.2402 0.95307 15.3674 0.900391 15.5 0.900391C15.6326 0.900391 15.7598 0.95307 15.8536 1.04684C15.9473 1.14061 16 1.26778 16 1.40039V3.90039C16 4.43082 15.7893 4.93953 15.4142 5.3146C15.0391 5.68968 14.5304 5.90039 14 5.90039H2C1.46957 5.90039 0.960859 5.68968 0.585786 5.3146C0.210714 4.93953 0 4.43082 0 3.90039V1.40039C0 1.26778 0.0526784 1.14061 0.146447 1.04684C0.240215 0.95307 0.367392 0.900391 0.5 0.900391Z" fill="#737373"/>
</svg>
