<svg width="8" height="11" viewBox="0 0 8 11" fill="none" xmlns="http://www.w3.org/2000/svg">
<path d="M3.64566 10.854C3.6921 10.9006 3.74728 10.9375 3.80802 10.9627C3.86877 10.9879 3.93389 11.0009 3.99966 11.0009C4.06542 11.0009 4.13054 10.9879 4.19129 10.9627C4.25203 10.9375 4.30721 10.9006 4.35366 10.854L7.35366 7.854C7.44754 7.76011 7.50029 7.63278 7.50029 7.5C7.50029 7.36722 7.44754 7.23989 7.35366 7.146C7.25977 7.05211 7.13243 6.99937 6.99966 6.99937C6.86688 6.99937 6.73954 7.05211 6.64566 7.146L4.49966 9.293V0.5C4.49966 0.367392 4.44698 0.240215 4.35321 0.146447C4.25944 0.0526784 4.13226 0 3.99966 0C3.86705 0 3.73987 0.0526784 3.6461 0.146447C3.55233 0.240215 3.49966 0.367392 3.49966 0.5V9.293L1.35366 7.146C1.25977 7.05211 1.13243 6.99937 0.999655 6.99937C0.866879 6.99937 0.739542 7.05211 0.645655 7.146C0.551769 7.23989 0.499023 7.36722 0.499023 7.5C0.499023 7.63278 0.551769 7.76011 0.645655 7.854L3.64566 10.854Z" fill="#737373"/>
</svg>
