<svg width="20" height="20" viewBox="0 0 20 20" fill="none" xmlns="http://www.w3.org/2000/svg">
<path d="M19.1369 7.41964C19.0793 7.24983 18.9731 7.10061 18.8317 6.99043C18.6902 6.88024 18.5195 6.81389 18.3408 6.79959L13.1116 6.38408L10.8488 1.37506C10.7767 1.21373 10.6595 1.07671 10.5113 0.980522C10.3631 0.884337 10.1902 0.833105 10.0135 0.833008C9.83679 0.832911 9.66384 0.883954 9.51552 0.979976C9.36719 1.076 9.24983 1.2129 9.17759 1.37415L6.91477 6.38408L1.68562 6.79959C1.50993 6.8135 1.34196 6.87774 1.20183 6.98462C1.06169 7.0915 0.955309 7.23648 0.895414 7.40224C0.835518 7.56799 0.824644 7.74749 0.864092 7.91926C0.903539 8.09103 0.991638 8.2478 1.11785 8.37081L4.98216 12.1379L3.61548 18.0559C3.57398 18.235 3.58728 18.4225 3.65365 18.594C3.72003 18.7655 3.83641 18.913 3.98769 19.0175C4.13898 19.1221 4.31819 19.1787 4.50206 19.1801C4.68594 19.1815 4.86598 19.1276 5.01885 19.0254L10.0132 15.6958L15.0075 19.0254C15.1638 19.1291 15.348 19.1825 15.5355 19.1784C15.723 19.1743 15.9047 19.1129 16.0563 19.0024C16.2078 18.8919 16.3219 18.7377 16.3832 18.5604C16.4444 18.3832 16.4499 18.1914 16.399 18.0109L14.7213 12.1406L18.8819 8.39649C19.1543 8.15067 19.2543 7.76727 19.1369 7.41964Z" fill="#F3CD03"/>
</svg>
